<?xml version="1.0" encoding="UTF-8" standalone="no"?>
<!DOCTYPE svg PUBLIC "-//W3C//DTD SVG 1.1//EN" "http://www.w3.org/Graphics/SVG/1.1/DTD/svg11.dtd">
<svg width="100%" height="100%" viewBox="0 0 1920 1440" version="1.1" xmlns="http://www.w3.org/2000/svg" xmlns:xlink="http://www.w3.org/1999/xlink" xml:space="preserve" xmlns:serif="http://www.serif.com/" style="fill-rule:evenodd;clip-rule:evenodd;stroke-linecap:round;">
    <g id="Troll-Face" serif:id="Troll Face">
        <g id="Face">
            <path d="M573,216C736.635,156.333 1182.17,193.167 1336,236C1403.36,254.756 1461.17,269.5 1514,347C1543.31,389.998 1525.03,443.925 1587,485C1634.84,516.71 1653.64,604.352 1580,685C1555.29,712.058 1562.16,794.886 1562.16,794.886C1562.16,794.886 1570.03,1028.64 1565,1106C1552.33,1300.83 1177.33,1259.67 1000,1194C832.617,1132.02 577.969,1023.27 507,940C483.818,912.799 459.974,878.999 444,845C423.411,801.178 391.734,764.063 339,703C286.266,641.937 308.281,512.421 414.192,450C484.225,408.724 484.437,248.293 573,216Z" style="fill:rgb(250,250,250);"/>
            <clipPath id="_clip1">
                <path d="M573,216C736.635,156.333 1182.17,193.167 1336,236C1403.36,254.756 1461.17,269.5 1514,347C1543.31,389.998 1525.03,443.925 1587,485C1634.84,516.71 1653.64,604.352 1580,685C1555.29,712.058 1562.16,794.886 1562.16,794.886C1562.16,794.886 1570.03,1028.64 1565,1106C1552.33,1300.83 1177.33,1259.67 1000,1194C832.617,1132.02 577.969,1023.27 507,940C483.818,912.799 459.974,878.999 444,845C423.411,801.178 391.734,764.063 339,703C286.266,641.937 308.281,512.421 414.192,450C484.225,408.724 484.437,248.293 573,216Z"/>
            </clipPath>
            <g clip-path="url(#_clip1)">
                <path d="M592.985,960.647C592.985,960.647 738.521,1040.86 950.123,1094.89C1061.68,1123.37 1191.61,1144.59 1328.25,1142.93C1375.55,1142.36 1413.45,1132.34 1440.07,1116.8C1467.48,1100.79 1483.05,1078.89 1485.12,1055.28C1485.28,1053.55 1484,1052.03 1482.28,1051.88C1480.55,1051.72 1479.03,1053 1478.88,1054.72C1476.92,1076.53 1462.18,1096.51 1436.83,1111.24C1410.95,1126.28 1374.1,1135.8 1328.18,1136.25C1192.2,1137.6 1062.95,1116.2 951.988,1087.62C741.622,1033.41 597.015,953.353 597.015,953.353C595.002,952.241 592.465,952.972 591.353,954.985C590.241,956.998 590.972,959.535 592.985,960.647Z"/>
                <path d="M1150,336C1217,331 1347.49,287.443 1378,393" style="fill:none;stroke:black;stroke-width:12px;"/>
                <path d="M633,498C635.85,495.184 639.373,493.04 645,493" style="fill:none;stroke:black;stroke-width:12px;"/>
                <path d="M639,459C631,462.667 551.169,466.392 627,479" style="fill:none;stroke:black;stroke-width:12px;"/>
                <path d="M666,395C666,395 729.344,283.123 968,306" style="fill:none;stroke:black;stroke-width:12px;"/>
                <path d="M627,384C695,307.333 798.833,276.833 873,268C932.984,260.856 994.02,269.821 1054,277C1159.83,289.667 1264.76,268.094 1316,272C1332.01,273.22 1334.12,272.373 1362,286" style="fill:none;stroke:black;stroke-width:12px;"/>
                <path d="M588,351C680,295.667 763.859,230.26 870,221C985.431,210.929 1232.32,261.872 1284,224" style="fill:none;stroke:black;stroke-width:12px;"/>
                <path d="M1306,569C1359.77,604.333 1372.13,569.229 1392,558C1419.3,542.569 1430.2,526.755 1494,561" style="fill:none;stroke:black;stroke-width:24px;"/>
                <path d="M1493,512C1533,522.333 1541.3,544.952 1541,579C1540.8,601.194 1543.6,624.234 1512,644" style="fill:none;stroke:black;stroke-width:12px;"/>
                <path d="M1403,469C1403,469 1558.87,448.149 1585,572C1585,572 1597.49,672.176 1498,688" style="fill:none;stroke:black;stroke-width:12px;"/>
                <path d="M1082,1055L1214,1055" style="fill:none;stroke:black;stroke-width:2px;"/>
                <path d="M970,613C970,613 878.851,617.218 932,685" style="fill:none;stroke:black;stroke-width:24px;stroke-linejoin:round;stroke-miterlimit:1.5;"/>
                <path d="M977,671C977,671 1018.96,658.061 1055,668" style="fill:none;stroke:black;stroke-width:24px;stroke-linejoin:round;stroke-miterlimit:1.5;"/>
                <path d="M432,678C432,678 342.174,492.782 566,513C629.646,518.749 710.915,614.347 804,512" style="fill:none;stroke:black;stroke-width:24px;stroke-linejoin:round;stroke-miterlimit:1.5;"/>
                <path d="M782,636C782,636 916.29,638.989 887,604" style="fill:none;stroke:black;stroke-width:8px;stroke-linejoin:round;stroke-miterlimit:1.5;"/>
                <path d="M1177,361C1177,361 1160.65,374.05 1163,419" style="fill:none;stroke:black;stroke-width:8px;stroke-miterlimit:2;"/>
                <path d="M982,385C982,385 981.96,341.77 950,320" style="fill:none;stroke:black;stroke-width:8px;stroke-miterlimit:2;"/>
                <path d="M514.739,463.969C514.739,463.969 456.995,457.165 411.792,479.528C391.179,489.726 373.137,505.865 363.908,531.117C348.344,573.698 352.908,626.812 369.23,667.177C383.832,703.29 408.013,728.938 434.875,729.57C437.397,729.639 439.501,727.647 439.57,725.125C439.639,722.603 437.647,720.499 435.125,720.43C411.29,719.688 391.072,695.676 378.356,663.527C363.219,625.254 359.074,575.022 374.092,534.883C382.41,512.653 398.532,498.609 416.798,489.744C459.257,469.139 513.261,476.031 513.261,476.031C516.59,476.439 519.624,474.067 520.031,470.739C520.439,467.41 518.067,464.376 514.739,463.969Z"/>
                <path d="M662.627,955.425C662.627,955.425 720.718,995.572 805.065,1031.46C850.527,1050.8 903.613,1068.9 959.338,1078.83C1067.83,1098.16 1162.51,1108.39 1239.2,1104.14C1316.95,1099.82 1376.35,1080.55 1413.28,1041.15C1414.47,1039.89 1414.41,1037.9 1413.15,1036.72C1411.89,1035.53 1409.9,1035.59 1408.72,1036.85C1372.63,1075.14 1314.59,1093.38 1238.84,1097.39C1162.57,1101.42 1068.48,1090.96 960.662,1071.46C905.562,1061.49 853.096,1043.43 808.172,1024.18C724.779,988.443 667.373,948.575 667.373,948.575C665.482,947.265 662.885,947.737 661.575,949.627C660.265,951.518 660.737,954.115 662.627,955.425Z"/>
            </g>
            <path d="M573,216C736.635,156.333 1182.17,193.167 1336,236C1403.36,254.756 1461.17,269.5 1514,347C1543.31,389.998 1525.03,443.925 1587,485C1634.84,516.71 1653.64,604.352 1580,685C1555.29,712.058 1562.16,794.886 1562.16,794.886C1562.16,794.886 1570.03,1028.64 1565,1106C1552.33,1300.83 1177.33,1259.67 1000,1194C832.617,1132.02 577.969,1023.27 507,940C483.818,912.799 459.974,878.999 444,845C423.411,801.178 391.734,764.063 339,703C286.266,641.937 308.281,512.421 414.192,450C484.225,408.724 484.437,248.293 573,216Z" style="fill:none;stroke:black;stroke-width:24px;"/>
            <path id="Eye--Right-" serif:id="Eye (Right)" d="M1358,466C1357.41,458.956 1332.8,433.763 1265.47,439.734C1224.05,443.408 1176.74,472.922 1145,502C1134.59,511.538 1193.86,493.239 1269,482C1321.41,474.161 1358.59,473.044 1358,466Z" style="fill:none;"/>
            <clipPath id="_clip2">
                <path id="Eye--Right-1" serif:id="Eye (Right)" d="M1358,466C1357.41,458.956 1332.8,433.763 1265.47,439.734C1224.05,443.408 1176.74,472.922 1145,502C1134.59,511.538 1193.86,493.239 1269,482C1321.41,474.161 1358.59,473.044 1358,466Z"/>
            </clipPath>
            <g clip-path="url(#_clip2)">
                <g transform="matrix(1.42857,0,0,1.42857,100.429,-167.571)">
                    <circle cx="790" cy="440" r="35"/>
                </g>
            </g>
            <path id="Eye--Right-2" serif:id="Eye (Right)" d="M1358,466C1357.41,458.956 1332.8,433.763 1265.47,439.734C1224.05,443.408 1176.74,472.922 1145,502C1134.59,511.538 1193.86,493.239 1269,482C1321.41,474.161 1358.59,473.044 1358,466Z" style="fill:none;stroke:black;stroke-width:23.96px;stroke-miterlimit:2;"/>
            <path id="Eye--Left-" serif:id="Eye (Left)" d="M681,465C679.54,452.684 797.478,386.965 886,413C924.802,424.412 945.295,428.154 983,481C1016.65,528.161 891.101,475.301 837,469C790.128,463.541 684.833,497.333 681,465Z" style="fill:none;"/>
            <clipPath id="_clip3">
                <path id="Eye--Left-1" serif:id="Eye (Left)" d="M681,465C679.54,452.684 797.478,386.965 886,413C924.802,424.412 945.295,428.154 983,481C1016.65,528.161 891.101,475.301 837,469C790.128,463.541 684.833,497.333 681,465Z"/>
            </clipPath>
            <g clip-path="url(#_clip3)">
                <g transform="matrix(1.71429,0,0,1.71429,-559.286,-315.286)">
                    <circle cx="790" cy="440" r="35"/>
                </g>
            </g>
            <path id="Eye--Left-2" serif:id="Eye (Left)" d="M681,465C679.54,452.684 797.478,386.965 886,413C924.802,424.412 945.295,428.154 983,481C1016.65,528.161 891.101,475.301 837,469C790.128,463.541 684.833,497.333 681,465Z" style="fill:none;stroke:black;stroke-width:23.96px;stroke-miterlimit:2;"/>
            <g id="Mouth">
                <path id="Mouth1" serif:id="Mouth" d="M535,600C509.755,617.949 549.402,823.597 833,962C970.19,1028.95 1309.32,1024.58 1406,964C1500.8,904.599 1472.6,604.351 1434,646C1385.45,698.387 1347.56,781.009 1051,751C754.035,720.95 560.722,581.712 535,600Z"/>
                <clipPath id="_clip4">
                    <path id="Mouth2" serif:id="Mouth" d="M535,600C509.755,617.949 549.402,823.597 833,962C970.19,1028.95 1309.32,1024.58 1406,964C1500.8,904.599 1472.6,604.351 1434,646C1385.45,698.387 1347.56,781.009 1051,751C754.035,720.95 560.722,581.712 535,600Z"/>
                </clipPath>
                <g clip-path="url(#_clip4)">
                    <path d="M1076,779C1076,779 1128.73,775.363 1154,788C1154,788 1165.14,796.207 1162,825C1162,825 1132.06,835.226 1077,826C1069.27,811.01 1069.63,794.37 1076,779Z" style="fill:rgb(240,240,240);"/>
                    <g transform="matrix(1.10053,-0.0962843,0.0962843,1.10053,-62.6528,24.6111)">
                        <path d="M1076,779C1076,779 1128.73,775.363 1154,788C1154,788 1165.14,796.207 1162,825C1162,825 1132.06,835.226 1077,826C1069.27,811.01 1069.63,794.37 1076,779Z" style="fill:rgb(240,240,240);"/>
                    </g>
                    <g transform="matrix(0.525758,-0.140876,0.240108,1.36172,568.208,-152.706)">
                        <path d="M1076,779C1076,779 1128.73,775.363 1154,788C1154,788 1165.14,796.207 1162,825C1162,825 1132.06,835.226 1077,826C1069.27,811.01 1069.63,794.37 1076,779Z" style="fill:rgb(240,240,240);"/>
                    </g>
                    <g transform="matrix(0.263027,-0.070478,0.277034,1.57114,896.003,-427.658)">
                        <path d="M1076,779C1076,779 1128.73,775.363 1154,788C1154,788 1165.14,796.207 1162,825C1162,825 1132.06,835.226 1077,826C1069.27,811.01 1069.63,794.37 1076,779Z" style="fill:rgb(240,240,240);"/>
                    </g>
                    <g transform="matrix(0.256687,0.090897,-0.661589,1.45173,1671.91,-359.87)">
                        <path d="M1076,779C1076,779 1128.73,775.363 1154,788C1154,788 1165.14,796.207 1162,825C1162,825 1132.06,835.226 1077,826C1069.27,811.01 1069.63,794.37 1076,779Z" style="fill:rgb(240,240,240);"/>
                    </g>
                    <g transform="matrix(0.117991,-0.0429452,0.190399,0.71058,1152.12,173.058)">
                        <path d="M1076,779C1076,779 1128.73,775.363 1154,788C1154,788 1165.14,796.207 1162,825C1162,825 1132.06,835.226 1077,826C1069.27,811.01 1069.63,794.37 1076,779Z" style="fill:rgb(240,240,240);"/>
                    </g>
                    <g transform="matrix(1.66396,0.145578,-0.145578,1.66396,-773.908,-713.659)">
                        <path d="M1076,779C1076,779 1128.73,775.363 1154,788C1154,788 1165.14,796.207 1162,825C1162,825 1132.06,835.226 1077,826C1069.27,811.01 1069.63,794.37 1076,779Z" style="fill:rgb(240,240,240);"/>
                    </g>
                    <g transform="matrix(1.64494,0.290048,-0.41712,2.3656,-568.61,-1291.66)">
                        <path d="M1076,779C1076,779 1128.73,775.363 1154,788C1154,788 1165.14,796.207 1162,825C1162,825 1132.06,835.226 1077,826C1069.27,811.01 1069.63,794.37 1076,779Z" style="fill:rgb(240,240,240);"/>
                    </g>
                    <g transform="matrix(1.26344,0.110536,-0.158963,1.81696,-190.917,-625.846)">
                        <path d="M1076,779C1076,779 1128.73,775.363 1154,788C1154,788 1165.14,796.207 1162,825C1162,825 1132.06,835.226 1077,826C1069.27,811.01 1069.63,794.37 1076,779Z" style="fill:rgb(240,240,240);"/>
                    </g>
                    <g transform="matrix(-0.0841774,0.962152,-1.47814,-0.12932,2490.49,-9.89762)">
                        <path d="M1076,779C1076,779 1128.73,775.363 1154,788C1154,788 1165.14,796.207 1162,825C1162,825 1132.06,835.226 1077,826C1069.27,811.01 1069.63,794.37 1076,779Z" style="fill:rgb(240,240,240);"/>
                    </g>
                    <g transform="matrix(-0.167714,0.951155,-1.09117,-0.192403,2359.72,46.644)">
                        <path d="M1076,779C1076,779 1128.73,775.363 1154,788C1154,788 1165.14,796.207 1162,825C1162,825 1132.06,835.226 1077,826C1069.27,811.01 1069.63,794.37 1076,779Z" style="fill:rgb(240,240,240);"/>
                    </g>
                    <g transform="matrix(-0.137442,0.955998,-0.64875,-0.0932694,2039.62,-52.1411)">
                        <path d="M1076,779C1076,779 1128.73,775.363 1154,788C1154,788 1165.14,796.207 1162,825C1162,825 1132.06,835.226 1077,826C1069.27,811.01 1069.63,794.37 1076,779Z" style="fill:rgb(240,240,240);"/>
                    </g>
                    <g transform="matrix(1.84539,0.49447,-0.49447,1.84539,-881.634,-1297.43)">
                        <path d="M1076,779C1076,779 1128.73,775.363 1154,788C1154,788 1165.14,796.207 1162,825C1162,825 1132.06,835.226 1077,826C1069.27,811.01 1069.63,794.37 1076,779Z" style="fill:rgb(240,240,240);"/>
                    </g>
                    <g transform="matrix(1.79527,0.653425,-0.731406,2.00952,-654.486,-1472.49)">
                        <path d="M1076,779C1076,779 1128.73,775.363 1154,788C1154,788 1165.14,796.207 1162,825C1162,825 1132.06,835.226 1077,826C1069.27,811.01 1069.63,794.37 1076,779Z" style="fill:rgb(240,240,240);"/>
                    </g>
                    <g transform="matrix(1.56959,0.571282,-0.433961,1.61957,-807.3,-1267.94)">
                        <path d="M1076,779C1076,779 1128.73,775.363 1154,788C1154,788 1165.14,796.207 1162,825C1162,825 1132.06,835.226 1077,826C1069.27,811.01 1069.63,794.37 1076,779Z" style="fill:rgb(240,240,240);"/>
                    </g>
                    <g transform="matrix(1.56959,0.571282,-0.433961,1.61957,-796.3,-1156.34)">
                        <path d="M1076,779C1076,779 1128.73,775.363 1154,788C1154,788 1165.14,796.207 1162,825C1162,825 1132.06,835.226 1077,826C1069.27,811.01 1069.63,794.37 1076,779Z" style="fill:rgb(240,240,240);"/>
                    </g>
                </g>
                <path id="Mouth3" serif:id="Mouth" d="M535,600C509.755,617.949 549.402,823.597 833,962C970.19,1028.95 1309.32,1024.58 1406,964C1500.8,904.599 1472.6,604.351 1434,646C1385.45,698.387 1347.56,781.009 1051,751C754.035,720.95 560.722,581.712 535,600Z" style="fill:none;stroke:black;stroke-width:23.96px;stroke-miterlimit:2;"/>
                <path d="M1445.64,643.088C1443.56,636.712 1441.64,630.394 1440.43,623.956C1439.26,617.746 1438.52,611.552 1438.94,605.23C1439.62,600.294 1436.17,595.735 1431.23,595.056C1426.29,594.377 1421.74,597.833 1421.06,602.77C1419.74,609.045 1419.36,615.341 1419.39,621.71C1419.44,630.74 1420.74,639.772 1422.36,648.912C1423.97,655.337 1430.49,659.248 1436.91,657.641C1443.34,656.034 1447.25,649.513 1445.64,643.088Z"/>
                <path d="M553.066,595.325C551.227,589.903 549.224,583.7 548.362,577.43C547.616,572.006 547.177,566.609 549.068,562.052C551.304,557.599 549.505,552.169 545.052,549.932C540.599,547.696 535.169,549.495 532.932,553.948C529.5,559.707 528.059,566.662 527.519,573.978C526.837,583.214 528.297,593.021 529.842,601.378C531.512,607.787 538.072,611.634 544.481,609.964C550.889,608.294 554.737,601.734 553.066,595.325Z"/>
                <path d="M526.187,612.644L458.752,625.059C453.817,625.748 450.37,630.313 451.059,635.248C451.748,640.183 456.313,643.63 461.248,642.941L529.505,636.413C536.064,635.498 540.646,629.429 539.731,622.869C538.815,616.31 532.746,611.728 526.187,612.644Z"/>
            </g>
            <path id="Nose" d="M1115,707C1169,737.667 1221.67,671.667 1220,634C1218.61,602.5 1156.5,621.667 1159,523C1159.57,500.634 1125.73,504.363 1105,488" style="fill:none;stroke:black;stroke-width:23.96px;stroke-miterlimit:2;"/>
        </g>
    </g>
</svg>
